<?xml version="1.0" encoding="utf-8"?>
<!-- Generator: Adobe Illustrator 17.0.2, SVG Export Plug-In . SVG Version: 6.00 Build 0)  -->
<!DOCTYPE svg PUBLIC "-//W3C//DTD SVG 1.1//EN" "http://www.w3.org/Graphics/SVG/1.1/DTD/svg11.dtd">
<svg version="1.1" id="Calque_1" xmlns="http://www.w3.org/2000/svg" xmlns:xlink="http://www.w3.org/1999/xlink" x="0px" y="0px"
	 width="205.155px" height="191.753px" viewBox="0 0 205.155 191.753" enable-background="new 0 0 205.155 191.753"
	 xml:space="preserve">
<g>
	<g>
		<path d="M78.818,84.228c9.673,0,9.673-15,0-15S69.145,84.228,78.818,84.228L78.818,84.228z"/>
	</g>
</g>
<g>
	<g>
		<path d="M120.987,84.228c9.673,0,9.673-15,0-15S111.314,84.228,120.987,84.228L120.987,84.228z"/>
	</g>
</g>
<g>
	<g>
		<path d="M79.168,125.782c9.673,0,9.673-15,0-15S69.495,125.782,79.168,125.782L79.168,125.782z"/>
	</g>
</g>
<g>
	<g>
		<path d="M100.252,103.993c9.673,0,9.673-15,0-15S90.579,103.993,100.252,103.993L100.252,103.993z"/>
	</g>
</g>
<g>
	<g>
		<path d="M121.337,125.782c9.673,0,9.673-15,0-15S111.664,125.782,121.337,125.782L121.337,125.782z"/>
	</g>
</g>
<path fill="none" stroke="#000000" stroke-width="5" stroke-linecap="round" stroke-linejoin="round" stroke-miterlimit="10" d="
	M61.041,59.229"/>
<path fill="none" stroke="#000000" stroke-width="7" stroke-linejoin="round" stroke-miterlimit="10" d="M142.944,96.493
	c0,42.806,0,42.806-42.692,42.806S57.56,139.514,57.56,96.493c0-42.806,0-42.806,42.692-42.806S142.944,53.687,142.944,96.493z"/>
</svg>
