<?xml version="1.0" encoding="utf-8"?>
<!-- Generator: Adobe Illustrator 17.0.2, SVG Export Plug-In . SVG Version: 6.00 Build 0)  -->
<!DOCTYPE svg PUBLIC "-//W3C//DTD SVG 1.1//EN" "http://www.w3.org/Graphics/SVG/1.1/DTD/svg11.dtd">
<svg version="1.1" id="Calque_1" xmlns="http://www.w3.org/2000/svg" xmlns:xlink="http://www.w3.org/1999/xlink" x="0px" y="0px"
	 width="205.155px" height="191.753px" viewBox="0 0 205.155 191.753" enable-background="new 0 0 205.155 191.753"
	 xml:space="preserve">
<path fill="none" stroke="#000000" stroke-width="7" stroke-linecap="round" stroke-linejoin="round" stroke-miterlimit="10" d="
	M63.082,91.402c-0.046-0.002-0.09-0.009-0.136-0.009c-10.993,0-17.436,11.28-17.436,24.011c0,12.731,6.561,23.323,17.554,23.323"/>
<path fill="none" stroke="#000000" stroke-width="7" stroke-linecap="round" stroke-linejoin="round" stroke-miterlimit="10" d="
	M137.012,91.402c0.046-0.002,0.09-0.009,0.136-0.009c10.993,0,17.407,10.321,17.407,23.052c0,12.731-5.405,23.459-16.397,23.459"/>
<path fill="none" stroke="#000000" stroke-width="7" stroke-linecap="round" stroke-linejoin="round" stroke-miterlimit="10" d="
	M138.158,137.904c0-45.875-3.318-83.063-37.546-83.063c-35.357,0-37.546,37.189-37.546,83.063"/>
<path fill="none" stroke="#000000" stroke-width="5" stroke-linecap="round" stroke-linejoin="round" stroke-miterlimit="10" d="
	M108.282,60.967"/>
</svg>
