<?xml version="1.0" encoding="utf-8"?>
<!-- Generator: Adobe Illustrator 17.0.2, SVG Export Plug-In . SVG Version: 6.00 Build 0)  -->
<!DOCTYPE svg PUBLIC "-//W3C//DTD SVG 1.1//EN" "http://www.w3.org/Graphics/SVG/1.1/DTD/svg11.dtd">
<svg version="1.1" id="Calque_1" xmlns="http://www.w3.org/2000/svg" xmlns:xlink="http://www.w3.org/1999/xlink" x="0px" y="0px"
	 width="205.155px" height="191.753px" viewBox="0 0 205.155 191.753" enable-background="new 0 0 205.155 191.753"
	 xml:space="preserve">
<path d="M76.744,93.339c2.612,1.105,4.444,3.691,4.444,6.705c0,4.019-3.258,7.277-7.277,7.277c-4.019,0-7.277-3.258-7.277-7.277
	s3.258-7.277,7.277-7.277C74.917,92.767,75.874,92.97,76.744,93.339"/>
<path fill="none" stroke="#000000" stroke-width="5" stroke-linecap="round" stroke-linejoin="round" stroke-miterlimit="10" d="
	M58.051,68.21"/>
<path fill="none" stroke="#000000" stroke-width="5" stroke-linecap="round" stroke-linejoin="round" stroke-miterlimit="10" d="
	M92.82,76.865"/>
<path fill="none" stroke="#000000" stroke-width="7" stroke-linecap="round" stroke-linejoin="round" stroke-miterlimit="10" d="
	M95.972,120.245c4.877-5.323,7.855-12.414,7.855-20.202c0-9.348-4.29-17.693-11.007-23.178"/>
<path fill="none" stroke="#000000" stroke-width="5" stroke-linecap="round" stroke-linejoin="round" stroke-miterlimit="10" d="
	M93.244,122.208"/>
<path fill="none" stroke="#000000" stroke-width="5" stroke-linecap="round" stroke-linejoin="round" stroke-miterlimit="10" d="
	M96.953,65.356"/>
<path fill="none" stroke="#000000" stroke-width="7" stroke-linecap="round" stroke-linejoin="round" stroke-miterlimit="10" d="
	M112.081,129.68c6.365-8.186,10.166-18.465,10.166-29.637c0-13.613-5.636-25.903-14.691-34.687"/>
<path fill="none" stroke="#000000" stroke-width="7" stroke-linecap="round" stroke-linejoin="round" stroke-miterlimit="10" d="
	M126.823,138.315c7.794-10.757,12.402-23.973,12.402-38.272c0-17.551-6.936-33.472-18.2-45.208"/>
</svg>
