<?xml version="1.0" encoding="utf-8"?>
<!-- Generator: Adobe Illustrator 17.0.2, SVG Export Plug-In . SVG Version: 6.00 Build 0)  -->
<!DOCTYPE svg PUBLIC "-//W3C//DTD SVG 1.1//EN" "http://www.w3.org/Graphics/SVG/1.1/DTD/svg11.dtd">
<svg version="1.1" id="Calque_1" xmlns="http://www.w3.org/2000/svg" xmlns:xlink="http://www.w3.org/1999/xlink" x="0px" y="0px"
	 width="205.155px" height="191.753px" viewBox="0 0 205.155 191.753" enable-background="new 0 0 205.155 191.753"
	 xml:space="preserve">
<line fill="none" stroke="#000000" stroke-width="7" stroke-linecap="round" stroke-linejoin="round" stroke-miterlimit="10" x1="52.287" y1="65.657" x2="87.145" y2="65.657"/>
<line fill="none" stroke="#000000" stroke-width="7" stroke-linecap="round" stroke-linejoin="round" stroke-miterlimit="10" x1="52.287" y1="76.902" x2="87.145" y2="76.902"/>
<line fill="none" stroke="#000000" stroke-width="7" stroke-linecap="round" stroke-linejoin="round" stroke-miterlimit="10" x1="52.287" y1="88.147" x2="87.145" y2="88.147"/>
<path fill="none" stroke="#000000" stroke-width="7" stroke-linejoin="round" stroke-miterlimit="10" d="M96.579,76.926
	c0,18.561,0,21.438-16.174,21.884c-1.087,0.03,0.425,12.337-0.814,12.349c-2.141,0.021-7.189-12.267-9.822-12.267
	c-26.809,0-26.809,0.111-26.809-21.966c0-21.966,0-21.966,26.809-21.966S96.579,54.96,96.579,76.926z"/>
<line fill="none" stroke="#000000" stroke-width="7" stroke-linecap="round" stroke-linejoin="round" stroke-miterlimit="10" x1="112.569" y1="94.559" x2="147.202" y2="94.559"/>
<line fill="none" stroke="#000000" stroke-width="7" stroke-linecap="round" stroke-linejoin="round" stroke-miterlimit="10" x1="112.569" y1="105.668" x2="147.202" y2="105.668"/>
<line fill="none" stroke="#000000" stroke-width="7" stroke-linecap="round" stroke-linejoin="round" stroke-miterlimit="10" x1="112.569" y1="116.778" x2="147.202" y2="116.778"/>
<path fill="none" stroke="#000000" stroke-width="7" stroke-linejoin="round" stroke-miterlimit="10" d="M156.937,105.641
	c0,18.051,0,20.849-16.287,21.283c-1.095,0.029-6.106,12.216-7.353,12.227c-2.156,0.02-0.705-12.148-3.356-12.148
	c-26.997,0-26.997,0.108-26.997-21.363c0-21.363,0-21.363,26.997-21.363S156.937,84.278,156.937,105.641z"/>
</svg>
