<?xml version="1.0" encoding="utf-8"?>
<!-- Generator: Adobe Illustrator 17.0.2, SVG Export Plug-In . SVG Version: 6.00 Build 0)  -->
<!DOCTYPE svg PUBLIC "-//W3C//DTD SVG 1.1//EN" "http://www.w3.org/Graphics/SVG/1.1/DTD/svg11.dtd">
<svg version="1.1" id="Calque_1" xmlns="http://www.w3.org/2000/svg" xmlns:xlink="http://www.w3.org/1999/xlink" x="0px" y="0px"
	 width="205.155px" height="191.753px" viewBox="0 0 205.155 191.753" enable-background="new 0 0 205.155 191.753"
	 xml:space="preserve">
<path fill="none" stroke="#000000" stroke-width="7" stroke-linejoin="round" stroke-miterlimit="10" d="M145.378,97.081
	c0,42.806,0,42.806-44.799,42.806s-44.799,0.216-44.799-42.806c0-42.806,0-42.806,44.799-42.806S145.378,54.275,145.378,97.081z"/>
<path fill="none" stroke="#000000" stroke-width="7" stroke-linejoin="round" stroke-miterlimit="10" d="M135.976,97.429
	c0,8.191,0,8.191-35.397,8.191s-35.397,0.041-35.397-8.191c0-8.191,0-8.191,35.397-8.191S135.976,89.238,135.976,97.429z"/>
<path fill="none" stroke="#000000" stroke-width="7" stroke-linejoin="round" stroke-miterlimit="10" d="M135.977,122.605
	c0,8.191,0,8.191-35.397,8.191s-35.397,0.041-35.397-8.191c0-8.191,0-8.191,35.397-8.191S135.977,114.414,135.977,122.605z"/>
<path fill="none" stroke="#000000" stroke-width="7" stroke-linejoin="round" stroke-miterlimit="10" d="M135.976,72.253
	c0,8.191,0,8.191-35.397,8.191s-35.397,0.041-35.397-8.191c0-8.191,0-8.191,35.397-8.191S135.976,64.063,135.976,72.253z"/>
</svg>
