<?xml version="1.0" encoding="utf-8"?>
<!-- Generator: Adobe Illustrator 17.0.2, SVG Export Plug-In . SVG Version: 6.00 Build 0)  -->
<!DOCTYPE svg PUBLIC "-//W3C//DTD SVG 1.1//EN" "http://www.w3.org/Graphics/SVG/1.1/DTD/svg11.dtd">
<svg version="1.1" id="Calque_1" xmlns="http://www.w3.org/2000/svg" xmlns:xlink="http://www.w3.org/1999/xlink" x="0px" y="0px"
	 width="205.155px" height="191.753px" viewBox="0 0 205.155 191.753" enable-background="new 0 0 205.155 191.753"
	 xml:space="preserve">
<path fill="none" stroke="#000000" stroke-width="7" stroke-linejoin="round" stroke-miterlimit="10" d="M127.792,56.891
	c0,21.391,0,21.391-28.269,21.391s-28.269,0-28.269-21.391"/>
<path fill="none" stroke="#000000" stroke-width="7" stroke-linejoin="round" stroke-miterlimit="10" d="M131.62,110.004
	c0,17.097,0,17.097-32.097,17.097c-31.879,0-32.097,0-32.097-17.097s0-17.097,32.097-17.097S131.62,92.908,131.62,110.004z"/>
<path fill="none" stroke="#000000" stroke-width="7" stroke-linejoin="round" stroke-miterlimit="10" d="M147.487,96.702
	c0,42.806,0,42.806-47.964,42.806s-47.964,0.216-47.964-42.806c0-42.806,0-42.806,47.964-42.806S147.487,53.896,147.487,96.702z"/>
<line fill="none" stroke="#000000" stroke-width="7" stroke-linecap="round" stroke-linejoin="round" stroke-miterlimit="10" x1="78.401" y1="104.319" x2="120.645" y2="104.319"/>
<line fill="none" stroke="#000000" stroke-width="7" stroke-linecap="round" stroke-linejoin="round" stroke-miterlimit="10" x1="78.401" y1="115.549" x2="120.645" y2="115.549"/>
</svg>
