<?xml version="1.0" encoding="utf-8"?>
<!-- Generator: Adobe Illustrator 17.0.2, SVG Export Plug-In . SVG Version: 6.00 Build 0)  -->
<!DOCTYPE svg PUBLIC "-//W3C//DTD SVG 1.1//EN" "http://www.w3.org/Graphics/SVG/1.1/DTD/svg11.dtd">
<svg version="1.1" id="Calque_1" xmlns="http://www.w3.org/2000/svg" xmlns:xlink="http://www.w3.org/1999/xlink" x="0px" y="0px"
	 width="841.89px" height="595.28px" viewBox="0 0 841.89 595.28" enable-background="new 0 0 841.89 595.28" xml:space="preserve">
<g>
	<path d="M445.625,292.718c-84.903,84.903-170.164,170.164-255.79,255.79c-12.673-13.206-25.675-26.754-39.419-41.076
		c71.44-70.725,143.627-142.19,215.994-213.833c-72.94-72.928-144.741-144.718-215.804-215.769
		c13.577-14.134,26.583-27.674,39.26-40.872C275.468,122.561,360.726,207.819,445.625,292.718z"/>
	<path d="M709.256,292.975c-84.092,84.788-169.022,170.421-253.75,255.85c-13.748-13.86-26.954-27.175-41.209-41.547
		c71.708-70.983,143.907-142.451,215.951-213.766C557.7,220.967,486.004,149.273,414.747,78.019
		c13.926-13.935,27.161-27.178,40.82-40.846C539.926,122.234,624.938,207.955,709.256,292.975z"/>
</g>
</svg>
